<svg id="e9AwjfJEtcb1" xmlns="http://www.w3.org/2000/svg" xmlns:xlink="http://www.w3.org/1999/xlink" viewBox="0 0 1024 1024" shape-rendering="geometricPrecision" text-rendering="geometricPrecision" project-id="4ba8c885c5d64acdb5e04b6caa8d2fff" export-id="bd3abfba070645e2a51f583604cd8ae7" cached="false"><g transform="matrix(1.18935 0 0 1.202739-96.975599-110.614403)"><path d="M525.1,270.1c16.5,0,28.1-5.4,25.7-12s-7.9-16.1-12.2-21.2c-4.3-5-31.6-9.1-48.1-9.1h-224c-16.5,0-34.8,1.9-40.8,4.3-5.9,2.4-15.3,19.2-17.4,25.9-2,6.7,9.8,12.1,26.3,12.1h290.5ZM618,863.3L884.9,596.4v-78.2L539.8,863.3h78.2ZM869.9,300.1h-715.8c-8.3,0-15,6.7-15,15v533.2c0,8.3,6.7,15,15,15h343.3L884.9,475.8v-160.7c0-8.2-6.7-15-15-15ZM256.7,463.2c-28.7,0-51.9-23.2-51.9-51.9s23.2-51.9,51.9-51.9s51.9,23.2,51.9,51.9-23.3,51.9-51.9,51.9ZM859.3,863.3l25.6-25.6v-78.2L781.1,863.3h78.2Zm-120.7,0L884.9,717v-78.2L660.5,863.3h78.1Z" fill="#fff"/><path d="M869.9,270.1h-282.9L574.8,236c-7.7-21.4-31.5-38.2-54.2-38.2h-284c-23,0-46.4,17.3-53.1,39.3l-10.1,33.1h-19.2c-24.8,0-45,20.2-45,45v533.2c0,24.8,20.2,45,45,45h715.9c24.8,0,45-20.2,45-45v-533.3c-.2-24.8-20.3-45-45.2-45ZM236.6,227.8h284c10.2,0,22.5,8.7,26,18.3l8.6,24.1h-350.5l7.4-24.3c2.9-9.5,14.6-18.1,24.5-18.1ZM884.9,837.7l-25.7,25.7h-78.2L884.9,759.5v78.2Zm0-120.7L738.6,863.3h-78.2L884.9,638.8v78.2Zm0-120.6L618,863.3h-78.2L884.9,518.2v78.2Zm0-120.6L497.4,863.3h-343.3c-8.3,0-15-6.7-15-15v-533.2c0-8.3,6.7-15,15-15h715.9c8.3,0,15,6.7,15,15v160.7h-.1Z"/><path d="M204.8,411.3c0,18.542084,9.892084,35.675677,25.95,44.946719s35.842084,9.271042,51.9,0s25.95-26.404635,25.95-44.946719-9.892084-35.675677-25.95-44.946719-35.842084-9.271042-51.9,0-25.95,26.404635-25.95,44.946719Z"/></g></svg>
